<defs>
<font horiz-adv-x="421" ><font-face
    font-family="walkway-oblique-black"
    units-per-em="1000"
    panose-1="0 0 4 0 0 0 0 0 0 0"
    ascent="874"
    descent="-179"
    alphabetic="0" />
<missing-glyph horiz-adv-x="500" d="M63 0V874H438V0H63ZM125 63H375V812H125V63Z" />
<glyph unicode=" " glyph-name="space" horiz-adv-x="354" />
<glyph unicode="!" glyph-name="exclam" horiz-adv-x="194" d="M82 155L194 678H290L178 155H82ZM97 0Q57 0 57 35Q57 40 58 45L70 103Q80 147 128 147Q168 147 168 113Q168 108 166 103L154 45Q145 0 97 0Z" />
<glyph unicode="&quot;" glyph-name="quotedbl" horiz-adv-x="292" d="M319 547Q271 547 278 581L290 639Q297 672 346 672Q393 672 386 639L374 581Q367 547 319 547ZM203 547Q156 547 163 581L175 639Q182 672 230 672Q278 672 271 639L259 581Q252 547 203 547Z" />
<glyph unicode="#" glyph-name="numbersign" horiz-adv-x="531" d="M548 325H457L447 304H535L496 224H407L374 161H276L308 224H266L233 161H135L167 224H79L118 304H208L218 325H127L171 405H259L292 468H390L358 405H400L431 468H529L498 405H586L548 325ZM317
325L306 304H348L359 325H317Z" />
<glyph unicode="$" glyph-name="dollar" horiz-adv-x="642" d="M436 -9L423 -70H327L337 -21Q331 -21 326 -21Q305 -21 286 -19L276 -70H180L193 -6Q40 37 40 169Q40 196 46 225L56 270H152L143 229Q138 207 138 188Q138 115 213 87L264 328Q123 367 123 466Q123
484 128 504Q158 648 341 688L355 753H451L439 699Q449 699 460 699Q475 699 490 698L502 753H598L583 685Q719 649 719 515Q719 481 710 440H616Q620 468 620 490Q620 566 563 592L516 370Q592 350 626 324Q674 288 674 225Q674 204 669 180Q653 105 581 53Q520
8 436 -9ZM471 610Q457 611 441 611Q430 611 420 610L375 400L424 390L471 610ZM321 595Q237 569 224 504Q222 494 222 486Q222 444 284 422L321 595ZM570 237Q554 258 496 277L455 82Q558 111 573 183Q582 223 570 237ZM405 299L356 308L305 69Q324 68 345 68Q351
68 356 68L405 299Z" />
<glyph unicode="%" glyph-name="percent" horiz-adv-x="750" d="M556 -19Q418 -19 418 110Q418 138 425 172Q466 367 639 367Q775 367 775 236Q775 207 768 172Q727 -19 556 -19ZM177 -2H59L735 678H852L177 -2ZM248 275Q111 275 111 404Q111 432 118 465Q160
659 331 659Q469 659 469 528Q469 499 461 465Q421 275 248 275ZM619 279Q545 279 522 172Q516 145 516 126Q516 68 576 68Q649 68 671 172Q677 200 677 220Q677 279 619 279ZM312 572Q238 572 215 465Q210 438 210 419Q210 362 268 362Q342 362 364 465Q370 492
370 512Q370 572 312 572Z" />
<glyph unicode="&amp;" glyph-name="ampersand" horiz-adv-x="603" d="M459 -19L476 57Q378 -16 264 -16Q170 -16 105 25T40 135Q40 150 44 167Q70 288 270 381Q208 428 208 496Q208 513 211 530Q227 603 299 644Q360 678 433 678Q501 678 545 651Q596 620 596
561Q596 546 593 529Q571 425 347 325Q244 279 209 254Q138 204 138 152Q138 111 190 89Q230 71 276 71Q393 71 467 162Q509 214 528 305H624L555 -19H459ZM459 591T417 591Q373 591 342 573Q305 552 305 512Q305 461 376 427Q487 482 497 530Q503 557 481 574Z"
/>
<glyph unicode="&apos;" glyph-name="quotesingle" horiz-adv-x="175" d="M203 547Q156 547 163 581L175 639Q182 672 230 672Q278 672 271 639L259 581Q252 547 203 547Z" />
<glyph unicode="(" glyph-name="parenleft" horiz-adv-x="233" d="M138 -168Q75 -34 75 113Q75 194 94 283Q146 530 330 734H441Q330 613 271 504Q215 402 190 283Q173 203 173 132Q173 -11 250 -168H138Z" />
<glyph unicode=")" glyph-name="parenright" horiz-adv-x="233" d="M18 -168H-94Q20 -47 81 62Q137 164 163 283Q179 361 179 429Q179 575 98 734H210Q277 601 277 451Q277 372 259 283Q206 33 18 -168Z" />
<glyph unicode="*" glyph-name="asterisk" horiz-adv-x="340" d="M392 557Q420 543 420 524Q420 512 409 500Q391 481 366 481Q343 481 314 496L311 482Q303 443 255 443Q236 443 224 453T215 482L218 496Q183 482 160 482Q134 482 125 499Q121 506 121 513Q121
538 167 557Q138 571 138 590Q138 603 152 618Q171 633 194 633Q201 633 208 632Q210 631 244 618L247 633Q255 672 304 672Q324 672 335 661T343 633L340 618Q381 633 396 633Q419 633 432 617Q436 609 436 601Q436 573 392 557Z" />
<glyph unicode="+" glyph-name="plus" horiz-adv-x="560" d="M372 210L342 67H246L276 210H85L103 292H294L324 433H420L390 292H582L564 210H372Z" />
<glyph unicode="," glyph-name="comma" horiz-adv-x="262" d="M143 -64Q127 -90 82 -90Q42 -90 50 -55Q51 -50 55 -42L120 60Q136 86 170 86Q213 86 213 57Q213 48 207 39L143 -64Z" />
<glyph unicode="-" glyph-name="hyphen" horiz-adv-x="350" d="M67 254L72 274H404L399 254H67Z" />
<glyph unicode="." glyph-name="period" horiz-adv-x="209" d="M105 -2Q56 -2 62 27L68 56Q75 85 123 85Q171 85 164 56L158 27Q152 -2 105 -2Z" />
<glyph unicode="/" glyph-name="slash" horiz-adv-x="350" d="M46 0H-59L460 694H565L46 0Z" />
<glyph unicode="0" glyph-name="zero" horiz-adv-x="584" d="M420 -12T290 -12Q180 -12 119 43T57 189Q57 219 64 252L97 406Q122 523 214 597T436 671Q566 671 625 597Q666 545 666 472Q666 441 659 406L626 252Q601 135 511 62ZM563 406Q568 430 568 452Q568
513 529 548T416 584Q328 584 269 535T193 406L160 252Q155 228 155 207Q155 158 182 124Q221 75 308 75Q396 75 456 124Q513 172 530 252L563 406Z" />
<glyph unicode="1" glyph-name="one" horiz-adv-x="413" d="M252 0L360 513L241 436H89L413 646H485L348 0H252Z" />
<glyph unicode="2" glyph-name="two" horiz-adv-x="584" d="M20 0Q66 210 307 328Q346 347 463 403Q555 448 555 498Q555 570 424 570Q331 570 283 530Q232 488 211 388H115Q146 535 230 596T437 657Q525 657 581 629Q652 593 652 518Q652 500 647 479Q628 386
432 296Q342 254 299 232Q185 162 144 87H595L576 0H20Z" />
<glyph unicode="3" glyph-name="three" horiz-adv-x="584" d="M295 -11Q186 -11 119 31Q44 77 44 168Q44 192 50 220L60 264H156L144 208Q141 194 141 182Q141 130 189 102Q234 76 309 76Q390 76 448 104Q512 136 524 191Q527 206 527 219Q527 301 376 301H293L311
389H396Q573 389 573 496Q573 532 530 552Q491 570 427 570Q326 570 275 531T204 398H108Q140 547 236 606Q319 657 443 657Q533 657 592 630Q672 595 672 518Q672 500 668 481Q649 391 565 346Q624 307 624 234Q624 213 619 191Q598 91 495 36Q407 -11 295 -11Z"
/>
<glyph unicode="4" glyph-name="four" horiz-adv-x="584" d="M499 201L456 0H360L403 201H14L356 647H461L186 288H422L498 649L594 645L518 288H647L628 201H499Z" />
<glyph unicode="5" glyph-name="five" horiz-adv-x="584" d="M497 48Q408 -11 286 -11Q159 -11 96 42Q45 85 45 164Q45 203 55 254H151Q143 212 143 183Q143 135 172 111Q215 76 305 76Q392 76 450 114T523 224Q527 241 527 257Q527 313 482 343T360 373Q249 373
168 285H82L176 646H679L660 559H252L216 423Q290 460 383 460Q488 460 554 414Q625 365 625 276Q625 252 619 225Q596 113 497 48Z" />
<glyph unicode="6" glyph-name="six" horiz-adv-x="584" d="M549 398Q557 436 557 463Q557 507 530 532Q491 569 415 569Q336 569 283 533T215 433L206 390Q281 432 383 432Q481 432 541 389Q606 343 606 260Q606 237 601 212Q578 108 485 48Q400 -6 288 -6Q190
-6 129 36Q64 82 64 164Q64 187 70 212L72 224L74 230L118 436Q140 541 236 600Q321 653 434 653Q546 653 607 598Q654 555 654 481Q654 445 644 398H549ZM480 312Q442 348 364 348Q286 348 232 312T165 212Q161 197 161 182Q161 132 200 105T306 78Q384 78 438
113T506 212Q509 229 509 244Q509 285 480 312Z" />
<glyph unicode="7" glyph-name="seven" horiz-adv-x="584" d="M235 0H130L555 559H147L166 646H726L235 0Z" />
<glyph unicode="8" glyph-name="eight" horiz-adv-x="601" d="M502 29Q418 -11 299 -11Q193 -11 126 22Q41 64 41 152Q41 173 46 197Q69 305 184 357Q137 393 137 447Q137 460 140 474Q162 575 261 622Q336 657 441 657Q533 657 592 628Q668 592 668 514Q668 495
663 474Q648 402 568 357Q642 316 642 235Q642 216 638 195Q614 83 502 29ZM422 570Q257 570 236 473Q228 437 277 414Q321 394 386 394Q451 394 505 416T567 475Q570 487 570 497Q570 570 422 570ZM367 307Q166 307 142 196Q140 184 140 173Q140 76 317 76Q517
76 542 196Q545 209 545 220Q545 307 367 307Z" />
<glyph unicode="9" glyph-name="nine" horiz-adv-x="584" d="M649 425L601 202Q579 97 483 38Q398 -15 286 -15Q173 -15 113 39Q65 82 65 156Q65 191 75 239H170Q162 199 162 172Q162 129 188 105Q227 69 305 69Q382 69 436 105T504 204L517 265Q443 223 340 223Q243
223 182 266Q117 312 117 394Q117 417 122 442Q145 547 238 607Q324 662 436 662Q533 662 594 619Q659 572 659 490Q659 467 653 442L651 430L649 425ZM533 542Q495 578 417 578Q339 578 285 543T217 442Q214 426 214 412Q214 362 252 335T359 307Q437 307 491
343T558 442Q562 459 562 474Q562 516 533 542Z" />
<glyph unicode=":" glyph-name="colon" horiz-adv-x="244" d="M192 322Q151 322 151 357Q151 361 152 366L164 421Q173 465 222 465Q265 465 260 423L248 366Q239 322 192 322ZM123 -2Q82 -2 82 32Q82 37 83 42L95 97Q104 141 153 141Q196 141 191 99L179 42Q170
-2 123 -2Z" />
<glyph unicode=";" glyph-name="semicolon" horiz-adv-x="251" d="M211 320Q171 320 171 354Q171 359 172 364L184 421Q193 465 242 465Q281 465 281 430Q281 425 280 421L268 364Q258 320 211 320ZM139 -58Q122 -91 86 -91Q66 -91 54 -79T45 -48Q47 -42 51 -34L123
101Q140 133 174 133Q216 133 216 99Q216 89 210 78L139 -58Z" />
<glyph unicode="&lt;" glyph-name="less" horiz-adv-x="535" d="M55 208L69 273L611 448L592 359L222 240L541 121L522 32L55 208Z" />
<glyph unicode="=" glyph-name="equal" horiz-adv-x="630" d="M65 245L79 313H684L670 245H65ZM48 167L62 235H667L653 167H48Z" />
<glyph unicode="&gt;" glyph-name="greater" horiz-adv-x="535" d="M17 32L36 121L406 240L87 359L106 448L574 273L560 208L17 32Z" />
<glyph unicode="?" glyph-name="question" horiz-adv-x="525" d="M468 340Q361 272 349 212L337 155H240L250 207Q273 311 403 395Q468 437 491 460Q523 493 523 533Q523 607 393 607Q311 607 263 569T182 431L101 478Q144 597 230 648Q308 694 413 694Q495 694
552 662Q621 624 621 552Q621 535 617 517Q598 424 468 340ZM254 0Q215 0 215 35Q215 40 216 45L228 103Q238 148 285 148Q326 148 326 113Q326 109 324 103L312 45Q302 0 254 0Z" />
<glyph unicode="@" glyph-name="at" horiz-adv-x="840" d="M648 195Q643 187 635 191Q629 194 616 218L647 219Q661 219 688 236T729 269Q808 356 808 438Q808 504 753 551Q685 608 569 608Q411 608 298 513Q215 444 193 340Q187 311 187 285Q187 205 244 149Q320
76 455 76Q533 76 619 109T767 212H876Q773 81 651 33Q541 -11 442 -11Q268 -11 168 85Q87 162 87 272Q87 307 95 345Q128 503 277 603Q415 695 584 695Q736 695 827 620Q907 554 907 454Q907 425 900 394Q879 295 790 210Q758 179 714 156Q662 129 621 129Q573
129 567 166Q489 117 392 116Q277 115 235 190Q216 223 216 265Q216 286 221 309Q245 422 331 496Q423 574 549 575Q643 576 687 533L703 575H787L781 553L776 560Q783 538 663 203Q651 195 650 195T648 195ZM526 490Q447 490 389 439T314 311Q310 295 310 281Q310
199 411 200Q481 200 541 245Q599 287 623 352Q634 383 634 412Q634 492 526 490Z" />
<glyph unicode="A" glyph-name="A" horiz-adv-x="636" d="M584 0L529 200H195L54 0H-54L430 678H505L689 0H584ZM437 537L258 287H506L437 537Z" />
<glyph unicode="B" glyph-name="B" horiz-adv-x="642" d="M553 40Q471 0 359 0H11L156 678H516Q605 678 662 645Q729 606 729 531Q729 511 725 490Q707 409 618 358Q689 320 689 241Q689 221 685 198Q662 92 553 40ZM602 566Q564 591 496 591H233L192 396H453Q522
396 570 421T630 494Q632 505 632 514Q632 547 602 566ZM557 282Q514 308 433 308H173L126 87H390Q467 87 520 114Q578 143 589 197Q592 210 592 221Q592 260 557 282Z" />
<glyph unicode="C" glyph-name="C" horiz-adv-x="719" d="M743 487Q712 547 662 572T529 598Q394 598 301 528T181 338Q174 303 174 272Q174 199 216 150Q277 80 408 80Q559 80 673 192L744 143Q589 -7 391 -7Q243 -7 159 62T75 253Q75 292 85 334Q119 495 245
590T548 685Q652 685 719 652Q791 617 835 536L743 487Z" />
<glyph unicode="D" glyph-name="D" horiz-adv-x="680" d="M580 85Q457 0 277 0H19L164 678H459Q607 678 684 612Q757 549 757 433Q757 389 746 338Q712 175 580 85ZM627 525Q575 591 440 591H241L134 87H299Q442 87 533 150T650 338Q660 381 660 417Q660 484 627 525Z" />
<glyph unicode="E" glyph-name="E" horiz-adv-x="564" d="M19 0L164 678H725L706 591H240L199 396H612L593 309H180L133 87H604L585 0H19Z" />
<glyph unicode="F" glyph-name="F" horiz-adv-x="505" d="M240 591L199 396H567L548 309H180L114 0H19L164 678H689L670 591H240Z" />
<glyph unicode="G" glyph-name="G" horiz-adv-x="758" d="M706 266H415L434 354H816Q811 301 806 281Q777 142 649 63Q536 -7 390 -7Q236 -7 149 59Q59 127 59 253Q59 293 68 337Q102 497 227 591T530 685Q661 685 738 635Q829 577 831 418H733Q730 513 678 555T512
598Q374 598 282 529T164 338Q157 303 157 272Q157 179 222 130T408 80Q516 80 601 131T706 266Z" />
<glyph unicode="H" glyph-name="H" horiz-adv-x="680" d="M564 0L630 309H181L115 0H19L164 678H260L200 396H649L709 678H805L660 0H564Z" />
<glyph unicode="I" glyph-name="I" horiz-adv-x="134" d="M19 0L164 678H260L115 0H19Z" />
<glyph unicode="J" glyph-name="J" horiz-adv-x="486" d="M222 -7Q19 -7 19 163Q19 180 21 200H118Q116 183 116 170Q116 121 143 101T236 80Q321 80 357 108T410 210L510 678H606L505 205Q460 -7 222 -7Z" />
<glyph unicode="K" glyph-name="K" horiz-adv-x="670" d="M607 0L306 328L167 242L115 0H19L164 678H260L190 351L729 678H887L395 381L744 0H607Z" />
<glyph unicode="L" glyph-name="L" horiz-adv-x="505" d="M19 0L164 678H260L134 87H562L543 0H19Z" />
<glyph unicode="M" glyph-name="M" horiz-adv-x="819" d="M702 0L804 478L444 0H375L217 478L115 0H19L164 678H258L437 133L849 678H943L798 0H702Z" />
<glyph unicode="N" glyph-name="N" horiz-adv-x="680" d="M574 0L227 526L115 0H19L164 678H250Q315 574 425 412Q558 217 598 155L709 678H805L660 0H574Z" />
<glyph unicode="O" glyph-name="O" horiz-adv-x="757" d="M554 -7T378 -7Q226 -7 143 61T60 252Q60 293 69 338Q103 498 227 588Q347 675 522 675Q673 675 758 609T843 422Q843 382 833 338Q800 179 677 86ZM703 523Q641 588 504 588Q367 588 279 523T165 338Q158
304 158 273Q158 182 219 131T396 80Q533 80 622 148T737 338Q745 374 745 405Q745 477 703 523Z" />
<glyph unicode="P" glyph-name="P" horiz-adv-x="621" d="M598 318Q515 277 405 277H174L115 0H19L164 678H501Q733 678 733 524Q733 501 728 475Q705 371 598 318ZM489 591H241L193 364H441Q513 364 564 392Q619 422 630 474Q634 491 634 506Q634 591 489 591Z" />
<glyph unicode="Q" glyph-name="Q" horiz-adv-x="757" d="M716 118Q653 56 568 23Q575 22 584 22H713L694 -66H565Q477 -66 433 -10Q406 -13 376 -13Q225 -13 142 56T59 248Q59 289 69 336Q103 497 225 586T522 675Q673 675 757 609T842 420Q842 380 833 336Q805
207 716 118ZM702 521Q641 587 504 587Q367 587 279 522T165 336Q157 300 157 269Q157 218 178 178Q248 252 351 252Q417 252 462 216T508 121Q508 107 505 91V90Q696 142 737 336Q745 372 745 404Q745 476 702 521ZM413 106Q413 132 391 148T333 165Q265 165 234
117Q295 75 395 75Q402 75 409 75Q409 80 411 90T413 106Z" />
<glyph unicode="R" glyph-name="R" horiz-adv-x="642" d="M613 331Q663 294 663 227Q663 206 658 183L619 0H523L562 180Q565 194 565 206Q565 284 420 284H176L115 0H19L164 678H513Q739 678 739 534Q739 513 734 490Q711 383 613 331ZM497 591H241L195 372H434Q514
372 567 399Q625 429 637 487Q640 501 640 513Q640 591 497 591Z" />
<glyph unicode="S" glyph-name="S" horiz-adv-x="642" d="M329 -7Q208 -7 134 30Q41 76 41 175Q41 199 47 227L56 271H152L143 230Q139 211 139 194Q139 80 348 80Q434 80 493 104Q562 131 574 185Q577 199 577 209Q577 234 560 248T502 274Q474 282 368 304Q242
330 199 353Q123 393 123 467Q123 483 127 501Q166 685 457 685Q717 685 717 504Q717 473 710 438H616Q620 468 620 491Q620 550 583 572Q539 598 438 598Q244 598 223 501Q221 491 221 483Q221 451 255 433T380 398Q560 367 617 331T674 224Q674 204 669 183Q648
84 535 33Q445 -7 329 -7Z" />
<glyph unicode="T" glyph-name="T" horiz-adv-x="545" d="M446 591L320 0H224L350 591H91L110 678H724L705 591H446Z" />
<glyph unicode="U" glyph-name="U" horiz-adv-x="664" d="M572 54Q482 -7 331 -7Q66 -7 66 183Q66 218 75 261L164 678H260L171 261Q165 232 165 207Q165 80 349 80Q565 80 602 258L692 678H788L699 259Q669 121 572 54Z" />
<glyph unicode="V" glyph-name="V" horiz-adv-x="628" d="M354 0H283L99 678H202L348 141L715 678H818L354 0Z" />
<glyph unicode="W" glyph-name="W" horiz-adv-x="970" d="M704 0H631L553 309L347 0H274L103 678H206L341 144L524 421L460 678H563L698 144L1052 678H1155L704 0Z" />
<glyph unicode="X" glyph-name="X" horiz-adv-x="604" d="M560 0L363 280L45 0H-80L314 348L79 678H206L392 415L692 678H818L442 348L684 0H560Z" />
<glyph unicode="Y" glyph-name="Y" horiz-adv-x="626" d="M430 320L361 0H265L334 320L59 678H187L399 403L729 678H855L430 320Z" />
<glyph unicode="Z" glyph-name="Z" horiz-adv-x="626" d="M-1 0L15 72L605 591H154L173 678H764L749 607L159 87H646L627 0H-1Z" />
<glyph unicode="[" glyph-name="bracketleft" horiz-adv-x="233" d="M28 -168L220 734H413L394 645H297L143 -79H240L221 -168H28Z" />
<glyph unicode="\" glyph-name="backslash" horiz-adv-x="350" d="M306 0L78 694H184L411 0H306Z" />
<glyph unicode="]" glyph-name="bracketright" horiz-adv-x="233" d="M133 -168H-59L-40 -79H56L59 -70L210 645H114L133 734H326L133 -168Z" />
<glyph unicode="^" glyph-name="asciicircum" horiz-adv-x="298" d="M301 511L266 559L210 511H98L254 646H313L419 511H301Z" />
<glyph unicode="_" glyph-name="underscore" horiz-adv-x="525" d="M-63 -119L-53 -71H547L537 -119H-63Z" />
<glyph unicode="`" glyph-name="grave" horiz-adv-x="193" d="M237 539Q202 562 147 602Q126 620 126 635Q126 653 154 665Q190 679 214 661Q244 642 301 600Q323 581 323 565Q323 547 294 536Q265 524 237 539Z" />
<glyph unicode="a" glyph-name="a" horiz-adv-x="564" d="M440 -1L450 45Q368 -11 258 -11Q150 -11 91 44Q37 96 37 183Q37 212 43 243Q67 355 152 425Q242 500 370 500Q476 500 535 446L546 498H642L536 -1H440ZM474 368Q436 415 347 415Q265 415 210 367T138
243Q133 220 133 198Q133 141 168 109Q205 74 275 74Q358 74 419 123Q477 170 492 243Q498 269 498 291Q498 337 474 368Z" />
<glyph unicode="b" glyph-name="b" horiz-adv-x="564" d="M509 65Q419 -10 290 -10Q188 -10 127 49L116 -1H20L165 678H261L215 462Q298 518 403 518Q513 518 571 462Q625 410 625 320Q625 287 617 251Q592 136 509 65ZM507 380Q473 431 389 431Q208 431 170 250Q165
227 165 208Q165 160 193 125Q231 77 314 77Q397 77 453 127Q505 174 522 252Q528 281 528 305Q528 350 507 380Z" />
<glyph unicode="c" glyph-name="c" horiz-adv-x="525" d="M435 26Q362 -11 272 -11Q162 -11 101 40T39 179Q39 206 46 236Q71 354 163 427T391 500Q474 500 528 465Q589 426 597 328L501 288Q495 360 466 387T371 415Q279 415 217 365Q159 317 142 236Q137 215
137 195Q137 74 289 74Q350 74 399 99T486 211L570 175Q520 69 435 26Z" />
<glyph unicode="d" glyph-name="d" horiz-adv-x="564" d="M440 -1L451 47Q368 -11 258 -11Q151 -11 92 46Q38 99 38 188Q38 219 45 252Q70 368 155 440Q246 518 374 518Q480 518 539 462L585 678H681L536 -1H440ZM476 382Q440 431 351 431Q269 431 211 379Q157
330 140 252Q135 227 135 204Q135 145 169 112Q206 76 275 76Q358 76 418 126T494 252Q500 280 500 304Q500 351 476 382Z" />
<glyph unicode="e" glyph-name="e" horiz-adv-x="525" d="M130 206Q119 74 278 74Q408 74 476 183H575Q507 62 422 23Q348 -11 258 -11Q146 -11 87 40Q33 89 33 176Q33 207 40 243Q64 354 154 427T371 500Q478 500 540 451T602 315Q602 289 596 261L585 207L130
206ZM472 372Q435 415 353 415Q271 415 215 372Q172 339 151 291H499Q500 339 472 372Z" />
<glyph unicode="f" glyph-name="f" horiz-adv-x="267" d="M260 468L258 459H369L350 371H239L160 -1H64L143 371H71L90 459H162L164 468Q206 666 505 666L487 580Q371 580 317 550Q272 524 260 468Z" />
<glyph unicode="g" glyph-name="g" horiz-adv-x="545" d="M228 -179Q132 -179 77 -144T22 -29Q22 -3 27 29H122Q120 14 120 1Q120 -52 152 -73Q181 -92 248 -92Q411 -92 437 33L439 42Q356 -11 255 -11Q165 -11 109 29Q37 81 37 181Q37 211 44 243Q68 356 156
428T370 500Q468 500 526 447L534 489H630L533 32Q488 -179 228 -179ZM463 362Q427 413 350 413Q270 413 213 365T140 243Q135 220 135 198Q135 142 169 109T271 76Q354 76 410 121T482 241Q487 264 487 284Q487 329 463 362Z" />
<glyph unicode="h" glyph-name="h" horiz-adv-x="525" d="M406 0L476 325Q479 339 479 352Q479 431 367 431Q292 431 242 390T176 282L116 0H20L165 678H261L217 474Q290 518 384 518Q468 518 520 484Q578 446 578 375Q578 355 573 334L502 0H406Z" />
<glyph unicode="i" glyph-name="i" horiz-adv-x="136" d="M182 541Q150 541 143 577L159 651Q184 687 213 687Q236 687 256 656L238 571Q206 541 182 541ZM20 0L129 508H225L116 0H20Z" />
<glyph unicode="j" glyph-name="j" horiz-adv-x="136" d="M181 539Q150 539 143 575L159 651Q184 687 213 687Q236 687 256 656L238 569Q206 539 181 539ZM-224 -179L-205 -91Q-90 -91 -36 -58Q11 -29 25 37L125 504H221L121 36Q75 -179 -224 -179Z" />
<glyph unicode="k" glyph-name="k" horiz-adv-x="532" d="M345 300L586 0H455L256 248L157 191L116 0H20L165 678H261L180 299L539 509L706 505L345 300Z" />
<glyph unicode="l" glyph-name="l" horiz-adv-x="136" d="M20 0L165 678H261L116 0H20Z" />
<glyph unicode="m" glyph-name="m" horiz-adv-x="817" d="M699 0L766 313Q770 333 770 349Q770 415 680 415Q616 415 574 384T520 301L456 0H360L427 313Q431 333 431 348Q431 415 338 415Q274 415 229 372Q187 333 174 272L116 0H20L125 490H221L214 460Q283
500 366 500Q469 500 511 437Q583 500 696 500Q869 500 869 369Q869 347 864 322L795 0H699Z" />
<glyph unicode="n" glyph-name="n" horiz-adv-x="525" d="M406 0L473 313Q476 326 476 338Q476 415 363 415Q288 415 238 376T174 272L116 0H20L125 490H221L214 457Q286 500 380 500Q464 500 517 467Q575 429 575 360Q575 342 571 322L502 0H406Z" />
<glyph unicode="o" glyph-name="o" horiz-adv-x="545" d="M398 -11T270 -11Q159 -11 98 42T37 185Q37 213 43 244Q67 357 159 428T380 500Q509 500 570 428Q613 377 613 304Q613 276 606 244Q582 131 490 60ZM488 369Q450 415 361 415Q273 415 215 368T139 244Q135
222 135 202Q135 154 163 121Q202 74 289 74Q376 74 435 121T510 244Q515 268 515 288Q515 336 488 369Z" />
<glyph unicode="p" glyph-name="p" horiz-adv-x="564" d="M507 50Q417 -28 287 -28Q182 -28 123 29L81 -168H-15L124 489H220L211 444Q294 500 398 500Q508 500 566 445Q621 394 621 304Q621 272 614 238Q589 121 507 50ZM502 363Q468 413 386 413Q302 413 243
365T167 239Q161 209 161 184Q161 60 310 60Q393 60 449 110Q502 157 519 237Q524 263 524 286Q524 331 502 363Z" />
<glyph unicode="q" glyph-name="q" horiz-adv-x="564" d="M404 -168L445 25Q366 -28 252 -28Q148 -28 90 31Q35 85 35 175Q35 205 42 238Q66 349 152 423Q243 500 368 500Q475 500 534 444L543 489H639L500 -168H404ZM412 403Q383 413 345 413Q263 413 207 362Q154
315 138 237Q133 212 133 190Q133 131 167 97Q203 60 271 60Q453 60 491 237Q496 261 496 282Q496 375 412 403Z" />
<glyph unicode="r" glyph-name="r" horiz-adv-x="318" d="M231 350Q179 293 159 201L116 0H20L125 490H221L211 445Q294 500 436 500L418 415Q290 415 231 350Z" />
<glyph unicode="s" glyph-name="s" horiz-adv-x="486" d="M396 16Q334 -13 246 -13Q41 -13 41 143Q41 175 49 213H147Q140 182 140 160Q140 113 169 94T266 74Q390 74 404 138Q412 177 334 194Q328 195 238 208Q96 229 96 321Q96 334 99 349Q115 425 194 466Q259
501 338 501Q539 501 539 356Q539 328 532 295H433Q439 322 439 341Q439 381 413 397T325 414Q275 414 239 396T197 349Q189 312 265 299Q290 294 367 281Q505 259 505 167Q505 153 502 138Q484 56 396 16Z" />
<glyph unicode="t" glyph-name="t" horiz-adv-x="263" d="M262 391L178 0H85L166 391H67L85 478H184L213 614H309L280 478H381L363 391H262Z" />
<glyph unicode="u" glyph-name="u" horiz-adv-x="525" d="M406 -2L413 32Q340 -11 248 -11Q159 -11 108 25Q53 63 53 133Q53 154 58 177L124 488H220L154 178Q151 164 151 151Q151 74 266 74Q422 74 454 225L510 488H606L502 -2H406Z" />
<glyph unicode="v" glyph-name="v" horiz-adv-x="471" d="M282 0H209L53 488H162L271 131L519 488H625L282 0Z" />
<glyph unicode="w" glyph-name="w" horiz-adv-x="771" d="M575 0H499L437 214L291 0H216L73 488H181L280 134L405 322L356 488H465L563 134L800 488H904L575 0Z" />
<glyph unicode="x" glyph-name="x" horiz-adv-x="467" d="M420 0L273 188L47 0H-81L224 252L44 488H172L300 315L506 488H631L351 252L548 0H420Z" />
<glyph unicode="y" glyph-name="y" horiz-adv-x="525" d="M203 -179Q108 -179 53 -143T-2 -29Q-2 -4 3 29H98Q96 13 96 0Q96 -52 128 -73Q157 -92 223 -92Q377 -92 409 15Q336 -29 244 -29Q157 -29 106 7Q50 46 50 119Q50 141 56 166L124 488H220L152 167Q149
151 149 138Q149 59 262 59Q419 59 452 216L510 488H606L509 31Q464 -179 203 -179Z" />
<glyph unicode="z" glyph-name="z" horiz-adv-x="473" d="M-10 0L5 68L407 403H105L123 488H569L555 421L152 85H501L482 0H-10Z" />
<glyph unicode="{" glyph-name="braceleft" horiz-adv-x="350" d="M207 -168Q114 -168 114 -82Q114 -64 118 -45L163 166Q167 186 168 200Q168 216 164 221T105 252L119 315Q184 339 191 345Q203 356 213 400L257 611Q284 734 399 734H448L429 645H381Q368 645
362 635T348 588L308 398Q291 317 246 283Q266 263 266 223Q266 200 259 168L219 -21Q211 -59 213 -70Q214 -79 227 -79H275L256 -168H207Z" />
<glyph unicode="|" glyph-name="bar" horiz-adv-x="233" d="M62 -32L219 706H315L158 -32H62Z" />
<glyph unicode="}" glyph-name="braceright" horiz-adv-x="350" d="M272 221Q260 210 251 166L206 -45Q180 -168 64 -168H16L35 -79H82Q95 -79 101 -69T115 -21L155 168Q173 252 218 283Q197 305 197 344Q197 366 204 398L244 588Q252 625 251 636Q249 645 236
645H189L208 734H256Q349 734 349 648Q349 630 345 611L301 400Q296 380 296 366Q295 350 299 345T359 315L345 252Q280 227 272 221Z" />
<glyph unicode="~" glyph-name="asciitilde" horiz-adv-x="548" d="M509 351T455 351Q419 351 337 372Q268 390 251 390Q230 390 220 383Q207 375 194 350H86Q117 413 164 434T267 455Q301 455 381 433Q450 415 468 415Q506 415 526 456H634Q604 392 557 372Z" />
<glyph unicode="&#xa0;" glyph-name="nbspace" horiz-adv-x="525" />
<glyph unicode="&#xa1;" glyph-name="exclamdown" horiz-adv-x="194" d="M191 436Q150 436 150 470Q150 475 151 480L164 538Q173 583 222 583Q261 583 261 548Q261 543 260 538L247 480Q238 436 191 436ZM28 -95L139 428H235L124 -95H28Z" />
<glyph unicode="&#xa2;" glyph-name="cent" horiz-adv-x="525" d="M435 24Q361 -14 271 -14Q216 -14 172 0L144 -36H39L98 41Q39 93 39 178Q39 206 46 238Q71 358 164 432T393 506Q421 506 447 502L484 551H589L529 471Q589 432 598 331L502 291Q495 368 469 392L232
79Q257 72 288 72Q350 72 399 98T486 212L570 175Q519 67 435 24ZM372 420Q280 420 218 369Q160 321 142 238Q137 214 137 194Q137 152 160 123L385 419Q379 420 372 420Z" />
<glyph unicode="&#xa3;" glyph-name="sterling" horiz-adv-x="584" d="M353 -12Q243 -12 182 43T120 189Q120 207 123 226H41L75 313H140L146 340H87L126 427H165Q193 530 277 597Q370 671 499 671Q623 671 708 571L624 511Q563 584 479 584Q391 584 333 535Q281
493 261 427H563L524 340H242L236 313H512L478 226H219Q213 164 245 124Q284 75 371 75Q455 75 546 146L606 89Q478 -12 353 -12Z" />
<glyph unicode="&#xa4;" glyph-name="currency" horiz-adv-x="584" d="M520 185L434 262Q386 242 333 242Q280 242 242 263L122 185L59 238L184 319Q169 350 177 387Q185 426 214 458L123 539L208 592L296 513Q343 533 394 533Q447 533 485 513L606 592L669 539L544
458Q560 426 552 388Q544 350 515 318L605 238L520 185ZM443 431Q419 451 378 451Q341 451 309 433Q271 412 271 378Q271 355 293 340T351 324Q392 324 422 342T458 387Q464 415 443 431Z" />
<glyph unicode="&#xa5;" glyph-name="yen" horiz-adv-x="645" d="M439 317H651L632 229H420L415 203H627L608 116H396L371 0H275L300 116H88L107 203H319L324 229H112L131 317H343L344 320L69 678H197L409 403L739 678H865L439 317Z" />
<glyph unicode="&#xa6;" glyph-name="brokenbar" horiz-adv-x="233" d="M141 340L216 696H312L237 340H141ZM64 -23L139 333H235L160 -23H64Z" />
<glyph unicode="&#xa7;" glyph-name="section" horiz-adv-x="584" d="M485 150Q519 121 519 76Q519 64 516 50Q499 -28 421 -72Q355 -108 276 -108Q78 -108 78 39Q78 68 85 103H181Q176 75 176 55Q176 14 202 -3T290 -20Q338 -20 374 -4Q421 18 421 61Q421 90
370 100L221 130Q178 142 149 171Q116 205 116 248Q116 265 122 282Q144 354 213 392Q178 421 178 466Q178 479 181 493Q198 571 277 615Q343 651 421 651Q620 651 620 503Q620 474 613 439H517Q523 467 523 487Q523 529 497 546T409 563Q363 563 325 546Q276 524
276 484Q276 463 306 451Q324 444 424 425Q488 419 531 391Q584 358 584 301Q584 288 580 273Q563 191 485 150ZM353 339Q251 339 222 290Q218 280 218 272Q218 241 256 222Q291 204 344 204Q466 204 484 269Q478 339 353 339Z" />
<glyph unicode="&#xa8;" glyph-name="dieresis" horiz-adv-x="214" d="M281 547Q234 547 240 575L244 597Q250 624 298 624Q315 624 329 617T340 597L336 575Q330 547 281 547ZM166 547Q118 547 124 575L128 597Q134 624 183 624Q230 624 224 597L220 575Q214
547 166 547Z" />
<glyph unicode="&#xa9;" glyph-name="copyright" horiz-adv-x="560" d="M335 236Q221 236 155 291Q97 339 97 411Q97 431 102 453Q123 553 225 616Q317 672 426 672Q537 672 605 615Q663 566 663 494Q663 475 659 454Q638 354 536 292Q444 236 335 236ZM410 586Q333
586 273 549T200 454Q197 441 197 429Q197 376 250 346Q294 321 351 321Q427 321 488 358T561 453Q564 466 564 478Q564 531 511 561Q467 586 410 586ZM357 301Q288 301 245 332T202 419Q202 435 205 451Q220 520 282 560Q340 598 416 598Q556 598 552 450H453Q452
485 441 498T397 512Q358 512 332 494Q302 474 302 437Q302 387 375 387Q420 387 457 452H560Q515 371 467 336T357 301Z" />
<glyph unicode="&#xaa;" glyph-name="ordfeminine" horiz-adv-x="378" d="M348 348L351 358Q309 342 260 342Q187 342 148 376T108 466Q108 483 112 500Q126 569 185 613T329 658Q377 658 411 643L414 657H512L446 348H348ZM354 576T309 576Q226 576 210 500Q207
489 207 479Q207 424 277 424Q318 424 346 445T381 500Q388 536 371 556Z" />
<glyph unicode="&#xab;" glyph-name="guillemotleft" horiz-adv-x="463" d="M262 249L273 298L523 422L504 330L394 274L480 218L461 129L262 249ZM86 249L97 298L347 422L328 330L218 274L304 218L285 129L86 249Z" />
<glyph unicode="&#xac;" glyph-name="logicalnot" horiz-adv-x="602" d="M510 134L531 231H61L76 302H642L606 134H510Z" />
<glyph unicode="&#xad;" glyph-name="minus" horiz-adv-x="592" d="M62 231L66 250H618L614 231H62Z" />
<glyph unicode="&#xae;" glyph-name="registered" horiz-adv-x="543" d="M324 236Q212 236 145 292Q87 341 87 412Q87 432 92 453Q113 553 215 616Q307 672 416 672Q528 672 595 615Q653 566 653 495Q653 475 648 454Q626 352 526 291Q435 236 324 236ZM519 549Q476
586 399 586Q322 586 262 549Q187 502 187 430Q187 380 229 351T341 321Q418 321 478 358T550 453Q553 467 553 479Q553 520 519 549ZM499 448Q509 427 503 399L484 309H385L404 398Q406 405 383 405H333L312 309H214L275 594H426Q531 594 531 523Q531 480 499
448ZM408 508H354L351 491H399Q428 491 430 501Q431 508 408 508Z" />
<glyph unicode="&#xaf;" glyph-name="overscore" horiz-adv-x="313" d="M124 597L128 616H447L443 597H124Z" />
<glyph unicode="0;" glyph-name="degree" horiz-adv-x="420" d="M292 385Q227 385 181 414Q131 445 131 497Q131 508 133 520Q146 581 214 620Q276 655 348 655Q414 655 459 627Q510 596 510 544Q510 533 507 521Q494 458 424 419Q362 385 292 385ZM398 559Q374
577 333 577Q292 577 263 561T228 521Q223 497 245 480T308 463Q349 463 378 479T413 520Q418 544 398 559Z" />
<glyph unicode="1;" glyph-name="plusminus" horiz-adv-x="630" d="M406 204L374 56H278L310 204H119L137 288H328L359 433H455L424 288H616L598 204H406ZM76 -3L94 82H573L555 -3H76Z" />
<glyph unicode="2;" glyph-name="twosuperior" horiz-adv-x="392" d="M53 256Q83 399 254 477Q291 492 358 522Q387 537 391 545Q398 577 321 577Q268 577 243 556T205 475H106Q146 662 335 662Q492 662 492 569Q492 557 489 543Q476 485 380 443L284 401Q216
371 185 340H466L448 256H53Z" />
<glyph unicode="3;" glyph-name="threesuperior" horiz-adv-x="426" d="M272 252Q197 252 149 277Q89 307 89 369Q89 383 92 399L101 442H201L191 392Q185 367 211 352T286 337Q326 337 356 347Q402 361 402 393Q402 427 318 427H244L262 512H337Q420 512
427 546Q434 577 346 577Q287 577 261 557T223 480H124Q162 662 363 662Q423 662 467 645Q529 621 529 567Q529 509 477 470Q503 446 503 409Q503 397 500 383Q486 316 411 281Q350 252 272 252Z" />
<glyph unicode="4;" glyph-name="acute" horiz-adv-x="212" d="M197 538Q180 529 162 529Q144 529 132 537T119 559Q119 575 141 588L270 663Q288 673 306 673Q324 673 336 664T349 643Q349 626 326 612L197 538Z" />
<glyph unicode="5;" glyph-name="mu1" horiz-adv-x="525" d="M400 -1Q399 -10 479 -10L460 -100Q377 -100 341 -82Q301 -62 297 -27Q282 -28 267 -28Q174 -28 120 16L80 -171H-16L124 488H220L162 216Q157 190 157 168Q157 59 286 59Q419 59 442 167L510 488H606L538
166Q512 47 401 -2Q401 -2 400 -1Z" />
<glyph unicode="6;" glyph-name="paragraph" horiz-adv-x="496" d="M347 -133L501 590H490L336 -133H240L315 218Q232 223 176 270Q115 321 115 401Q115 424 120 448Q142 553 244 619Q337 679 449 679Q455 679 460 678H616L443 -133H347Z" />
<glyph unicode="7;" glyph-name="middot" horiz-adv-x="209" d="M179 280Q130 280 136 309L142 338Q149 367 197 367Q245 367 238 338L232 309Q226 280 179 280Z" />
<glyph unicode="8;" glyph-name="cedilla" horiz-adv-x="259" d="M138 -101Q99 -99 89 -101L85 -102Q80 -103 40 -116L51 -66L78 9H171L161 -28Q244 -35 244 -86Q244 -92 242 -100Q227 -174 86 -174Q44 -174 -57 -152L6 -86Q71 -102 98 -102Q134 -102 138 -101Z" />
<glyph unicode="9;" glyph-name="onesuperior" horiz-adv-x="287" d="M201 260L259 534L190 500H8L315 653H385L302 260H201Z" />
<glyph unicode="a;" glyph-name="ordmasculine" horiz-adv-x="413" d="M429 390Q365 350 279 350Q205 350 160 382Q112 415 112 472Q112 487 115 503Q131 575 199 617Q262 656 347 656Q422 656 469 624T516 534Q516 519 512 503Q497 432 429 390ZM404 557Q379
578 329 578Q282 578 248 557Q208 531 208 487Q208 428 297 428Q402 428 418 503Q426 537 404 557Z" />
<glyph unicode="b;" glyph-name="guillemotright" horiz-adv-x="458" d="M237 129L256 218L366 274L280 330L299 422L497 298L486 249L237 129ZM61 129L80 218L190 274L104 330L123 422L321 298L310 249L61 129Z" />
<glyph unicode="c;" glyph-name="onequarter" horiz-adv-x="816" d="M728 123L701 0H606L633 123H340L603 428H712L523 208H651L698 430L792 425L746 208H838L820 123H728ZM245 0H140L658 694H763L245 0ZM219 236L282 535L209 497H39L335 655H404L315 236H219Z" />
<glyph unicode="d;" glyph-name="onehalf" horiz-adv-x="803" d="M400 0Q436 155 598 230L694 274Q741 300 743 308Q744 313 744 317Q744 347 672 347Q619 347 593 324T552 235H458Q502 432 686 432Q839 432 839 335Q839 311 831 292Q811 241 733 205Q688
184 634 158Q559 121 527 85H809L790 0H400ZM234 0H129L648 694H753L234 0ZM208 236L271 534L199 497H28L324 655H393L304 236H208Z" />
<glyph unicode="e;" glyph-name="threequarters" horiz-adv-x="906" d="M819 123L792 0H697L724 123H431L695 428H804L614 208H742L789 430L883 425L837 208H929L911 123H819ZM336 0H231L750 694H855L336 0ZM278 229Q99 229 99 347Q99 364 103 384L112 427H206L195
376Q194 371 194 366Q194 314 293 314Q336 314 368 326Q414 343 414 379Q414 418 327 418H256L274 503H346Q432 503 441 541Q449 579 357 579Q298 579 271 557T230 474H136Q179 663 374 663Q434 663 476 646Q537 621 537 566Q537 554 535 541Q524 492 480 460Q509
434 509 393Q509 381 506 367Q492 298 418 260Q356 229 278 229Z" />
<glyph unicode="f;" glyph-name="questiondown" horiz-adv-x="525" d="M352 451Q313 451 313 486Q313 490 314 495L326 554Q336 599 383 599Q423 599 423 564Q423 559 422 554L410 495Q400 451 352 451ZM408 -49Q330 -95 226 -95Q143 -95 86 -64Q16 -25 16
47Q16 64 20 83Q34 148 99 205Q158 249 217 293Q280 343 290 388L302 444H399L388 392Q366 289 235 204Q169 162 147 139Q114 106 114 66Q114 -8 245 -8Q328 -8 373 29Q423 69 456 172L536 120Q493 2 408 -49Z" />
<glyph unicode="0;" glyph-name="Agrave" horiz-adv-x="676" d="M565 663Q552 656 538 656Q518 656 505 669L414 783Q406 794 406 806Q406 826 425 842T465 859Q485 859 497 843Q528 808 559 773Q595 730 595 704Q595 679 565 663ZM604 0L550 204H216L74 0H-34L453
693H529L709 0H604ZM460 549L279 293H527L460 549Z" />
<glyph unicode="1;" glyph-name="Aacute" horiz-adv-x="676" d="M462 672Q443 657 423 657Q406 657 394 668T382 694Q382 715 404 733L542 845Q561 861 581 861Q598 861 609 850T621 824Q621 803 599 785L462 672ZM604 0L550 205H217L74 0H-34L453 693H529L709
0H604ZM460 549L279 293H527L460 549Z" />
<glyph unicode="2;" glyph-name="Acircumflex" horiz-adv-x="676" d="M545 652L495 736L410 652H296L490 847H549L663 652H545ZM604 0L550 204H216L74 0H-34L453 692H528L709 0H604ZM460 549L279 293H527L460 549Z" />
<glyph unicode="3;" glyph-name="Atilde" horiz-adv-x="676" d="M597 663T556 663Q530 663 476 692Q436 714 431 714Q422 714 413 689Q412 686 398 635L320 690Q333 748 374 776Q412 802 451 802Q471 802 507 785Q535 771 562 757Q570 753 575 752Q584 752
593 775Q595 779 607 827L688 778Q670 718 634 691ZM604 0L550 203H216L74 0H-34L453 690H528L709 0H604ZM460 547L279 292H527L460 547Z" />
<glyph unicode="4;" glyph-name="Adieresis" horiz-adv-x="676" d="M538 658Q499 658 499 693Q499 698 500 703L511 753Q520 799 568 799Q608 799 608 764Q608 759 607 753L596 703Q586 658 538 658ZM423 658Q383 658 383 693Q383 698 384 703L395 753Q404
799 453 799Q492 799 492 763Q492 758 491 753L480 703Q470 658 423 658ZM604 0L550 203H216L74 0H-34L453 689H528L709 0H604ZM459 546L279 291H527L459 546Z" />
<glyph unicode="5;" glyph-name="Aring" horiz-adv-x="676" d="M567 695Q528 668 481 668Q441 668 413 690T385 749Q385 760 387 770Q397 816 439 845Q478 873 525 873Q565 873 593 851T621 792Q621 733 567 695ZM604 0L550 205H217L74 0H-34L454 694H529L709
0H604ZM520 778Q515 782 505 782Q488 782 485 770Q483 758 500 758Q519 758 521 770Q522 775 520 778ZM460 550L279 294H527L460 550Z" />
<glyph unicode="6;" glyph-name="AE" horiz-adv-x="1077" d="M552 0L618 309H397L28 0H-98L712 678H1208L1189 591H775L734 397H780V396H1095L1076 309H715L669 87H1087L1068 0H552ZM502 397H637L667 533L502 397Z" />
<glyph unicode="7;" glyph-name="Ccedilla" horiz-adv-x="719" d="M742 483Q711 545 661 570T529 596Q394 596 300 525T180 331Q172 295 172 263Q172 189 214 139Q274 68 405 68Q556 68 671 182L742 132Q586 -21 388 -21Q240 -21 157 49T74 243Q74 283 83
327Q118 491 244 588T548 685Q652 685 719 652Q791 615 835 533L742 483ZM337 -174Q295 -174 196 -145L262 -64Q326 -85 353 -85Q395 -85 398 -74Q398 -75 373 -73Q352 -71 295 -95L309 -32L340 65H434L421 14Q500 6 500 -56Q500 -66 498 -78Q478 -174 337 -174Z"
/>
<glyph unicode="8;" glyph-name="Egrave" horiz-adv-x="564" d="M507 655Q492 646 476 646Q456 646 443 661Q413 696 382 732Q347 774 347 800Q347 824 374 839Q390 849 406 849Q426 849 437 834Q468 799 499 764Q534 722 534 695Q534 671 507 655ZM19 0L167
692H728L709 604H243L200 404H613L595 316H182L133 89H604L585 0H19Z" />
<glyph unicode="9;" glyph-name="Eacute" horiz-adv-x="564" d="M402 661Q383 646 363 646Q346 646 334 657T322 683Q322 704 343 722L481 834Q500 849 519 849Q536 849 548 838T560 812Q560 791 538 773L402 661ZM19 0L167 692H728L709 604H243L200 404H613L595
316H182L133 89H604L585 0H19Z" />
<glyph unicode="a;" glyph-name="Ecircumflex" horiz-adv-x="564" d="M488 662L438 745L353 662H239L433 857H492L608 662H488ZM19 0L167 693H728L709 604H243L200 404H613L595 316H182L133 89H604L585 0H19Z" />
<glyph unicode="b;" glyph-name="Edieresis" horiz-adv-x="564" d="M482 666Q442 666 442 701Q442 706 443 711L453 761Q463 807 512 807Q550 807 550 771Q550 766 549 761L539 711Q529 666 482 666ZM366 666Q327 666 327 701Q327 706 328 711L338 761Q348
807 396 807Q435 807 435 772Q435 767 434 761L424 711Q414 666 366 666ZM19 0L166 689H727L708 601H242L200 402H613L594 315H181L133 88H604L585 0H19Z" />
<glyph unicode="c;" glyph-name="Igrave" horiz-adv-x="134" d="M294 669Q279 661 265 661Q244 661 232 676L142 788Q134 799 134 811Q134 831 153 848T194 865Q214 865 227 849Q257 814 288 779Q323 736 323 710Q323 685 294 669ZM19 0L167 693H263L115 0H19Z" />
<glyph unicode="d;" glyph-name="Iacute" horiz-adv-x="134" d="M189 672Q171 657 150 657Q133 657 121 668T109 694Q109 715 131 732L267 845Q287 861 307 861Q324 861 336 851T348 824Q348 803 326 785L189 672ZM19 0L167 693H263L115 0H19Z" />
<glyph unicode="e;" glyph-name="Icircumflex" horiz-adv-x="134" d="M273 658L223 742L137 658H23L217 853H276L392 658H273ZM19 0L167 693H263L115 0H19Z" />
<glyph unicode="f;" glyph-name="Idieresis" horiz-adv-x="134" d="M268 673Q229 673 229 709Q229 714 230 719L241 769Q251 814 298 814Q342 814 337 771L326 719Q316 673 268 673ZM153 673Q112 673 112 709Q112 714 113 719L124 769Q134 814 183 814Q226
814 221 771L210 719Q200 673 153 673ZM19 0L166 690H262L115 0H19Z" />
<glyph unicode="&#xd0;" glyph-name="Eth" horiz-adv-x="680" d="M580 85Q457 0 277 0H19L82 296H45L64 384H101L164 678H459Q607 678 684 612Q757 549 757 433Q757 389 746 338Q712 175 580 85ZM627 525Q575 591 440 591H241L197 384H395L376 296H178L134 87H299Q442
87 533 150T650 338Q660 381 660 417Q660 484 627 525Z" />
<glyph unicode="&#xd1;" glyph-name="Ntilde" horiz-adv-x="680" d="M589 657T548 657Q522 657 467 686Q427 708 422 708Q414 708 405 683Q404 680 390 629L312 684Q324 741 366 770Q405 796 442 796Q463 796 498 779Q526 765 554 751Q562 747 567 746Q576 746
584 768Q586 773 598 818L680 774Q662 713 626 685ZM574 0L229 535L115 0H19L166 689H253Q317 583 426 419Q558 220 598 158L711 689H807L660 0H574Z" />
<glyph unicode="&#xd2;" glyph-name="Ograve" horiz-adv-x="757" d="M606 667Q591 659 577 659Q556 659 544 674L453 787Q445 800 445 813Q445 833 464 847T505 861Q527 861 538 847Q569 812 599 777Q634 734 634 708Q634 683 606 667ZM554 -7T378 -7Q227 -7 144
62T61 256Q61 299 71 346Q106 509 229 601Q350 690 526 690Q676 690 760 623T845 433Q845 392 835 346Q800 183 677 88ZM705 535Q644 602 507 602Q370 602 282 536T167 346Q159 310 159 277Q159 185 220 134T396 82Q533 82 623 152T739 346Q747 384 747 416Q747
489 705 535Z" />
<glyph unicode="&#xd3;" glyph-name="Oacute" horiz-adv-x="757" d="M499 676Q479 663 462 663Q445 663 434 673T422 699Q422 720 444 738L581 851Q598 866 620 866Q635 866 647 858Q661 847 661 832Q661 804 603 756Q551 716 499 676ZM554 -7T378 -7Q227 -7 144
62T61 256Q61 299 71 346Q106 509 229 601Q350 690 526 690Q676 690 760 623T845 433Q845 392 835 346Q800 183 677 88ZM705 535Q644 602 507 602Q371 602 282 536T167 346Q159 310 159 277Q159 185 220 134T396 82Q533 82 623 152T739 346Q747 384 747 416Q747
489 705 535Z" />
<glyph unicode="&#xd4;" glyph-name="Ocircumflex" horiz-adv-x="757" d="M587 670L537 753L452 670H338L531 864H589L706 670H587ZM554 -7T378 -7Q227 -7 144 62T61 256Q61 299 71 346Q106 509 229 601Q350 690 526 690Q676 690 760 623T845 433Q845 392 835
346Q800 183 677 88ZM705 535Q644 602 507 602Q371 602 282 536T167 346Q159 310 159 277Q159 185 220 134T396 82Q533 82 623 152T739 346Q747 384 747 416Q747 489 705 535Z" />
<glyph unicode="&#xd5;" glyph-name="Otilde" horiz-adv-x="757" d="M633 678T592 678Q572 678 536 695Q508 709 481 723Q472 727 468 728Q456 728 445 692Q442 685 431 649L357 705Q370 762 412 791Q450 817 488 817Q513 817 567 788Q607 767 611 767Q621 767
630 790Q632 793 644 842L726 792Q705 732 669 705ZM554 -7T378 -7Q226 -7 144 62T61 256Q61 298 71 345Q105 508 229 599Q350 688 525 688Q676 688 760 621T845 431Q845 391 835 345Q800 183 677 88ZM705 533Q644 599 506 599Q370 599 282 533T167 345Q159 309
159 277Q159 184 220 133T396 82Q533 82 622 151T739 345Q747 382 747 414Q747 487 705 533Z" />
<glyph unicode="&#xd6;" glyph-name="Odieresis" horiz-adv-x="757" d="M580 673Q540 673 540 709Q540 714 541 719L552 769Q562 814 610 814Q653 814 648 771L637 719Q627 673 580 673ZM464 673Q425 673 425 709Q425 714 426 719L437 769Q447 814 494 814Q538
814 533 771L522 719Q512 673 464 673ZM554 -7T378 -7Q226 -7 144 62T61 255Q61 297 71 345Q105 507 229 598Q349 687 525 687Q675 687 759 620T844 431Q844 390 835 345Q800 182 677 88ZM705 532Q643 599 506 599Q370 599 282 533T167 345Q159 309 159 276Q159
184 220 133T396 81Q533 81 622 151T739 345Q747 382 747 414Q747 487 705 532Z" />
<glyph unicode="&#xd7;" glyph-name="multiply" horiz-adv-x="490" d="M403 104L287 199L131 105L69 157L224 252L110 345L195 398L310 303L465 398L527 345L373 251L489 154L403 104Z" />
<glyph unicode="&#xd8;" glyph-name="Oslash" horiz-adv-x="757" d="M553 -9T377 -9Q309 -9 254 5L229 -29H124L175 39Q61 109 61 257Q61 296 70 339Q104 499 227 590Q347 678 523 678Q590 678 644 665L672 704H777L725 633Q842 565 842 420Q842 381 834 339Q799
178 676 85ZM665 554L316 87Q352 79 396 79Q532 79 622 147T738 339Q745 374 745 405Q745 506 665 554ZM504 590Q368 590 280 525T166 339Q158 305 158 275Q158 172 235 120L582 584Q547 590 504 590Z" />
<glyph unicode="&#xd9;" glyph-name="Ugrave" horiz-adv-x="664" d="M558 660Q544 651 529 651Q511 651 496 664L405 779Q397 790 397 802Q397 822 416 838T457 855Q477 855 489 839L579 727Q587 717 587 704Q587 677 558 660ZM572 56Q482 -7 331 -7Q67 -7 67
186Q67 222 76 266L167 692H263L172 267Q166 236 166 210Q166 82 349 82Q565 82 603 263L695 692H791L700 264Q670 124 572 56Z" />
<glyph unicode="&#xda;" glyph-name="Uacute" horiz-adv-x="664" d="M451 667Q432 654 414 654Q396 654 385 664T373 690Q373 711 395 729L532 841Q551 857 571 857Q588 857 600 847T612 820Q612 799 590 781L451 667ZM572 56Q482 -7 331 -7Q67 -7 67 186Q67 222
76 266L167 693H263L172 267Q166 236 166 210Q166 82 349 82Q565 82 604 263L695 693H791L700 264Q670 124 572 56Z" />
<glyph unicode="&#xdb;" glyph-name="Ucircumflex" horiz-adv-x="664" d="M539 660L488 744L403 660H289L483 855H541L657 660H539ZM572 56Q482 -7 331 -7Q67 -7 67 186Q67 222 76 266L167 693H263L172 267Q166 236 166 210Q166 82 349 82Q565 82 603 263L695
693H791L700 264Q670 124 572 56Z" />
<glyph unicode="&#xdc;" glyph-name="Udieresis" horiz-adv-x="664" d="M533 673Q493 673 493 709Q493 714 494 719L505 769Q515 814 563 814Q602 814 602 779Q602 774 601 769L590 719Q580 673 533 673ZM417 673Q378 673 378 709Q378 714 379 719L390 769Q400
814 447 814Q487 814 487 779Q487 775 486 769L475 719Q465 673 417 673ZM572 55Q482 -7 331 -7Q67 -7 67 185Q67 222 76 265L166 690H262L172 266Q165 235 165 210Q165 81 349 81Q565 81 603 262L694 690H790L699 263Q670 123 572 55Z" />
<glyph unicode="&#xdd;" glyph-name="Yacute" horiz-adv-x="657" d="M451 672Q432 657 412 657Q395 657 383 668T371 694Q371 715 393 733L531 845Q550 861 570 861Q587 861 599 850T611 824Q611 803 589 785L451 672ZM447 327L377 0H281L351 327L79 693H206L417
412L748 693H874L447 327Z" />
<glyph unicode="&#xde;" glyph-name="Thorn" horiz-adv-x="425" d="M268 157H150L116 0H20L165 678H261L231 540H351Q488 540 488 410Q488 381 481 346Q441 157 268 157ZM331 453H213L168 243H287Q362 244 384 346Q390 374 390 394Q390 453 331 453Z" />
<glyph unicode="&#xdf;" glyph-name="germandbls" horiz-adv-x="505" d="M428 25Q338 -30 168 -30L187 58Q322 58 387 97Q446 133 463 212Q466 230 466 246Q466 294 429 325Q380 365 252 365L271 453Q395 453 433 466Q480 481 489 525Q492 538 492 548Q492 575
470 587Q442 602 363 602Q245 602 222 499L116 -3H20L98 365H63L82 454H117Q125 487 135 524Q179 690 384 690Q591 690 591 568Q591 550 586 528Q565 442 490 404Q563 347 563 255Q563 233 559 212Q532 89 428 25Z" />
<glyph unicode="&#xe0;" glyph-name="agrave" horiz-adv-x="552" d="M379 486Q347 521 316 556Q280 598 280 624Q280 647 308 663Q323 672 339 672Q360 672 372 658Q400 628 451 565Q468 540 468 521Q468 497 440 481Q426 474 412 474Q393 474 379 486ZM440 -1L451
47Q368 -11 258 -11Q151 -11 92 46Q38 99 38 188Q38 219 45 252Q70 367 155 440Q245 518 374 518Q480 518 539 461L550 516H646L536 -1H440ZM476 382Q440 430 350 430Q269 430 211 378Q157 329 140 252Q135 227 135 204Q135 145 169 112Q206 76 275 76Q358 76 418
126T494 252Q500 280 500 303Q500 351 476 382Z" />
<glyph unicode="&#xe1;" glyph-name="aacute" horiz-adv-x="552" d="M344 486Q324 473 308 473Q291 473 279 483T267 509Q267 529 289 547L426 658Q445 674 466 674Q506 674 506 638Q506 617 485 598L344 486ZM452 -1L463 47Q380 -11 270 -11Q163 -11 104 46Q50
99 50 188Q50 219 57 252Q82 367 167 440Q257 518 386 518Q492 518 551 461L562 516H658L548 -1H452ZM488 382Q452 430 362 430Q281 430 223 378Q169 330 152 252Q147 227 147 204Q147 145 181 112Q218 76 287 76Q370 76 430 126T506 252Q512 280 512 304Q512 351
488 382Z" />
<glyph unicode="&#xe2;" glyph-name="acircumflex" horiz-adv-x="552" d="M433 483L383 565L298 483H184L376 674H435L553 483H433ZM452 -1L463 47Q380 -11 270 -11Q163 -11 104 46Q50 99 50 188Q50 219 57 252Q82 367 167 440Q257 518 386 518Q492 518 551 462L562
516H658L548 -1H452ZM488 382Q452 430 362 430Q281 430 223 378Q169 330 152 252Q147 227 147 204Q147 145 181 112Q218 76 287 76Q370 76 430 126T506 252Q512 280 512 304Q512 351 488 382Z" />
<glyph unicode="&#xe3;" glyph-name="atilde" horiz-adv-x="552" d="M478 491T437 491Q412 491 357 519Q317 540 313 540Q301 540 290 505Q288 498 277 463L202 517Q214 574 256 602Q295 627 332 627Q357 627 412 599Q452 578 456 578Q468 578 479 611Q484 631
489 651L570 603Q550 544 514 518ZM452 -1L462 47Q380 -11 270 -11Q163 -11 104 46Q50 98 50 187Q50 218 57 251Q81 365 166 438Q257 515 385 515Q491 515 550 459L562 513H658L548 -1H452ZM488 379Q451 428 362 428Q280 428 222 376Q168 328 152 251Q146 226 146
203Q146 145 182 111T287 76Q370 76 431 127Q490 175 506 251Q512 278 512 301Q512 348 488 379Z" />
<glyph unicode="&#xe4;" glyph-name="adieresis" horiz-adv-x="552" d="M438 485Q398 485 398 521Q398 526 399 531L410 580Q419 624 468 624Q507 624 507 590Q507 585 506 580L495 531Q486 485 438 485ZM322 485Q283 485 283 521Q283 526 284 531L295 580Q304
624 352 624Q392 624 392 590Q392 585 391 580L380 531Q371 485 322 485ZM452 -1L462 47Q380 -11 270 -11Q163 -11 104 46Q50 98 50 187Q50 217 57 250Q81 364 166 437Q257 514 385 514Q491 514 550 458L561 512H657L548 -1H452ZM488 379Q451 427 362 427Q280 427
222 375Q168 327 152 250Q146 225 146 203Q146 144 182 110T287 76Q370 76 430 125T506 250Q511 277 511 301Q511 348 488 379Z" />
<glyph unicode="&#xe5;" glyph-name="aring" horiz-adv-x="552" d="M376 498Q335 498 307 519T279 579Q279 588 281 599Q291 645 333 673Q372 700 419 700Q459 700 486 678T514 619Q514 609 512 599Q502 554 463 526T376 498ZM452 -1L463 47Q380 -11 270 -11Q163
-11 104 46Q50 99 50 188Q50 220 57 253Q82 369 167 442Q258 520 386 520Q493 520 551 463L563 518H659L548 -1H452ZM409 611T400 611Q381 611 379 599Q376 587 395 587Q412 587 415 599Q416 604 413 607ZM489 383Q452 432 363 432Q281 432 223 380Q169 331 152
253Q147 228 147 205Q147 146 182 112T287 77Q370 77 430 127T506 253Q512 281 512 305Q512 352 489 383Z" />
<glyph unicode="&#xe6;" glyph-name="ae" horiz-adv-x="984" d="M547 206L587 238L583 219Q578 197 578 179Q578 74 730 74Q860 74 928 183H1028Q960 63 873 24Q798 -11 710 -11Q601 -11 544 36L536 -1H440L450 45Q368 -11 258 -11Q150 -11 91 44Q37 96 37 183Q37
212 43 243Q67 355 152 425Q242 500 370 500Q476 500 535 446L546 498H642L631 442Q717 500 822 500Q929 500 991 451T1053 315Q1053 289 1047 261L1036 207L547 206ZM923 372Q886 415 804 415Q734 415 676 379T598 286Q674 290 950 291Q951 339 923 372ZM474 368Q436
415 347 415Q265 415 210 367T138 243Q133 220 133 198Q133 141 168 109Q205 74 275 74Q358 74 419 123Q477 170 492 243Q498 269 498 291Q498 337 474 368Z" />
<glyph unicode="&#xe7;" glyph-name="ccedilla" horiz-adv-x="525" d="M432 10Q358 -28 268 -28Q159 -28 98 24T37 167Q37 196 44 227Q70 349 163 424T391 500Q474 500 528 464Q589 424 596 323L499 281Q494 356 464 386Q435 413 371 413Q279 413 219 363T140
227Q135 204 135 183Q135 59 286 59Q347 59 396 85T484 201L568 164Q517 54 432 10ZM303 -77Q303 -77 302 -78Q298 -77 278 -75Q257 -74 200 -97L213 -35L246 60H339L326 11Q405 2 405 -59Q405 -69 403 -80Q383 -174 242 -174Q201 -174 103 -147L165 -66Q231 -87
258 -87Q300 -87 303 -77Z" />
<glyph unicode="&#xe8;" glyph-name="egrave" horiz-adv-x="525" d="M449 480Q436 474 422 474Q402 474 389 486L296 598Q288 610 288 622Q288 642 307 656T349 671Q369 671 381 658Q412 623 443 588Q479 546 479 520Q479 496 449 480ZM131 214Q119 76 278 76Q408
76 477 189H576Q508 64 422 24Q348 -11 258 -11Q146 -11 88 42Q34 91 34 180Q34 214 42 252Q66 366 157 442T375 518Q482 518 543 468T604 328Q604 300 598 270L586 215L131 214ZM475 386Q439 430 356 430Q274 430 218 386Q175 352 153 301H501Q503 352 475 386Z"
/>
<glyph unicode="&#xe9;" glyph-name="eacute" horiz-adv-x="525" d="M485 601L343 488Q323 475 306 475Q289 475 278 485T266 511Q266 531 288 549L424 659Q442 674 462 674Q478 674 492 665Q506 649 503 631Q500 618 485 601ZM131 214Q119 76 278 76Q408 76 477
189H576Q508 64 422 24Q348 -11 258 -11Q146 -11 88 42Q34 91 34 180Q34 214 42 252Q66 366 157 442T375 518Q482 518 543 468T604 328Q604 300 598 270L586 215L131 214ZM475 386Q439 430 356 430Q274 430 218 386Q175 352 153 301H501Q503 352 475 386Z" />
<glyph unicode="&#xea;" glyph-name="ecircumflex" horiz-adv-x="525" d="M431 483L381 565L296 483H181L376 674H434L550 483H431ZM131 214Q119 76 278 76Q408 76 477 189H576Q508 64 422 24Q348 -11 258 -11Q146 -11 88 42Q34 91 34 180Q34 214 42 252Q66 366
157 442T375 518Q482 518 543 468T604 328Q604 301 598 270L586 215L131 214ZM475 386Q439 430 356 430Q274 430 218 386Q175 352 153 302H501Q503 352 475 386Z" />
<glyph unicode="&#xeb;" glyph-name="edieresis" horiz-adv-x="525" d="M424 485Q385 485 385 521Q385 526 386 531L397 580Q406 624 454 624Q494 624 494 590Q494 585 493 580L482 531Q473 485 424 485ZM309 485Q269 485 269 521Q269 526 270 531L281 580Q290
624 339 624Q378 624 378 590Q378 585 377 580L366 531Q357 485 309 485ZM131 212Q119 76 278 76Q408 76 477 188H576Q508 64 422 24Q348 -11 258 -11Q146 -11 88 41Q34 90 34 179Q34 212 42 250Q66 363 156 438T374 514Q481 514 542 464T604 325Q604 298 597 268L586
213L131 212ZM474 383Q438 427 356 427Q273 427 217 382Q174 349 152 299H500Q502 349 474 383Z" />
<glyph unicode="&#xec;" glyph-name="igrave" horiz-adv-x="136" d="M254 481Q241 474 227 474Q208 474 194 487L103 597Q94 608 94 620Q94 640 113 656T154 673Q173 673 186 658Q217 623 248 588Q284 546 284 521Q284 496 254 481ZM20 0L128 507H224L116 0H20Z" />
<glyph unicode="&#xed;" glyph-name="iacute" horiz-adv-x="136" d="M150 484Q131 469 111 469Q94 469 82 480T70 506Q70 526 92 544L229 654Q248 669 268 669Q285 669 296 659T308 632Q308 612 286 594L150 484ZM20 0L128 507H224L116 0H20Z" />
<glyph unicode="&#xee;" glyph-name="icircumflex" horiz-adv-x="136" d="M233 484L188 563L109 484H-4L182 674H241L350 484H233ZM20 0L128 507H224L116 0H20Z" />
<glyph unicode="&#xef;" glyph-name="idieresis" horiz-adv-x="136" d="M232 486Q193 486 193 522Q193 526 194 531L205 580Q214 624 262 624Q302 624 302 590Q302 585 301 580L290 531Q281 486 232 486ZM117 486Q77 486 77 521Q77 526 78 531L89 580Q98 624 147
624Q186 624 186 590Q186 585 185 580L174 531Q165 486 117 486ZM20 0L127 503H223L116 0H20Z" />
<glyph unicode="&#xf0;" glyph-name="eth" horiz-adv-x="564" d="M440 -1L451 47Q368 -11 258 -11Q151 -11 92 46Q38 99 38 188Q38 219 45 252Q70 368 155 440Q246 518 374 518Q480 518 539 462L552 525H220L239 613H571L585 678H681L536 -1H440ZM476 382Q440
431 351 431Q269 431 211 379Q157 330 140 252Q135 227 135 204Q135 145 169 112Q206 76 275 76Q358 76 418 126T494 252Q500 280 500 304Q500 351 476 382Z" />
<glyph unicode="&#xf1;" glyph-name="ntilde" horiz-adv-x="525" d="M479 491T438 491Q413 491 358 519Q318 540 313 540Q304 540 295 516Q294 514 281 464L202 517Q214 573 257 601Q296 627 332 627Q353 627 388 611Q416 597 444 583Q452 580 457 578Q466 578
475 601Q477 605 489 651L570 604Q552 545 516 518ZM406 0L475 322Q478 337 478 349Q478 428 366 428Q291 428 241 388T176 280L116 0H20L128 504H224L217 471Q289 515 383 515Q467 515 519 481Q577 443 577 372Q577 353 573 331L502 0H406Z" />
<glyph unicode="&#xf2;" glyph-name="ograve" horiz-adv-x="545" d="M399 486Q367 521 336 556Q300 598 300 624Q300 647 328 663Q343 672 359 672Q380 672 392 658Q420 628 471 565Q488 540 488 521Q488 497 460 481Q446 474 432 474Q413 474 399 486ZM398 -11T270
-11Q160 -11 99 44T38 190Q38 220 45 253Q70 369 162 443T384 518Q513 518 573 443Q615 391 615 317Q615 287 608 253Q583 136 491 63ZM491 383Q453 430 364 430Q277 430 218 382T141 253Q136 229 136 208Q136 159 164 125Q202 76 289 76Q376 76 435 125T512 253Q518
278 518 300Q518 349 491 383Z" />
<glyph unicode="&#xf3;" glyph-name="oacute" horiz-adv-x="545" d="M354 484Q335 469 316 469Q298 469 287 480T275 506Q275 527 296 543L433 654Q452 669 472 669Q490 669 501 659T513 632Q513 612 491 594L354 484ZM398 -11T270 -11Q160 -11 99 44T38 190Q38
220 45 253Q70 369 162 443T384 517Q513 517 573 443Q615 391 615 317Q615 287 608 253Q583 136 491 63ZM491 382Q453 430 364 430Q277 430 218 382T141 253Q136 229 136 208Q136 159 164 125Q202 76 289 76Q376 76 435 125T512 253Q518 278 518 300Q518 349 491
382Z" />
<glyph unicode="&#xf4;" glyph-name="ocircumflex" horiz-adv-x="545" d="M442 483L392 565L306 483H191L386 674H444L562 483H442ZM398 -11T270 -11Q160 -11 99 44T38 190Q38 220 45 253Q70 370 162 444T384 518Q513 518 573 443Q615 391 615 317Q615 287 608
253Q583 136 491 63ZM491 383Q453 430 364 430Q277 430 218 382T141 253Q136 229 136 208Q136 159 164 125Q202 76 289 76Q376 76 435 125T512 253Q518 278 518 300Q518 349 491 383Z" />
<glyph unicode="&#xf5;" glyph-name="otilde" horiz-adv-x="545" d="M523 518Q486 491 445 491Q420 491 365 519Q329 538 321 540Q308 540 299 506Q297 499 288 463L209 517Q222 575 263 602Q301 627 340 627Q360 627 396 610Q423 597 451 583Q459 580 464 578Q476
578 502 650L577 602Q557 544 523 518ZM398 -11T270 -11Q159 -11 98 45Q38 98 38 189Q38 219 45 251Q70 367 162 441T383 515Q512 515 573 441Q615 389 615 315Q615 285 608 251Q583 135 491 62ZM491 380Q453 428 364 428Q276 428 217 380T141 251Q136 228 136
207Q136 158 164 124Q202 76 289 76Q376 76 435 124T512 251Q517 276 517 298Q517 347 491 380Z" />
<glyph unicode="&#xf6;" glyph-name="odieresis" horiz-adv-x="545" d="M434 485Q394 485 394 521Q394 526 395 531L406 580Q415 624 464 624Q503 624 503 590Q503 585 502 580L491 531Q482 485 434 485ZM318 485Q279 485 279 521Q279 526 280 531L291 580Q300
624 348 624Q388 624 388 590Q388 585 387 580L376 531Q367 485 318 485ZM398 -11T270 -11Q159 -11 98 45Q38 98 38 189Q38 219 45 251Q69 367 161 440T383 514Q512 514 573 440Q615 388 615 314Q615 284 608 251Q583 135 491 62ZM490 379Q453 427 364 427Q276
427 217 379T141 251Q136 227 136 206Q136 158 163 124Q202 76 289 76Q376 76 435 124T512 251Q517 276 517 298Q517 346 490 379Z" />
<glyph unicode="&#xf7;" glyph-name="divide" horiz-adv-x="592" d="M352 264Q331 264 321 276T313 305L324 357Q333 398 381 398Q399 398 410 389Q425 377 420 357L409 305Q401 264 352 264ZM55 199L72 280H624L607 199H55ZM312 74Q291 74 280 86T273 116L284
167Q293 209 340 209Q360 209 372 198T380 167L369 116Q360 74 312 74Z" />
<glyph unicode="&#xf8;" glyph-name="oslash" horiz-adv-x="545" d="M397 -15T269 -15Q222 -15 184 -5L152 -47H47L107 32Q36 86 36 181Q36 211 44 245Q68 360 160 433T381 506Q424 506 460 498L499 549H603L538 462Q613 407 613 305Q613 276 607 245Q582 130
490 58ZM477 382L243 75Q264 71 288 71Q375 71 434 119T511 245Q515 267 515 287Q515 344 477 382ZM362 419Q274 419 215 372T140 245Q135 224 135 204Q135 149 168 114L398 417Q381 419 362 419Z" />
<glyph unicode="&#xf9;" glyph-name="ugrave" horiz-adv-x="525" d="M448 477Q435 470 421 470Q402 470 388 483L297 594Q289 604 289 617Q289 641 315 658Q331 669 346 669Q368 669 380 654Q411 619 442 584Q478 542 478 516Q478 492 448 477ZM406 -1L414 34Q340
-11 248 -11Q160 -11 109 26Q54 65 54 137Q54 159 60 184L128 507H224L156 185Q152 169 152 156Q152 76 266 76Q423 76 456 234L514 507H610L502 -1H406Z" />
<glyph unicode="&#xfa;" glyph-name="uacute" horiz-adv-x="525" d="M346 488Q327 473 307 473Q290 473 278 483T266 510Q266 530 287 547L424 658Q443 673 463 673Q480 673 492 663T504 636Q504 615 482 597L346 488ZM406 -1L414 34Q340 -11 248 -11Q160 -11
109 26Q54 65 54 137Q54 159 60 184L128 507H224L156 185Q153 169 153 156Q153 76 266 76Q423 76 456 234L514 507H610L502 -1H406Z" />
<glyph unicode="&#xfb;" glyph-name="ucircumflex" horiz-adv-x="525" d="M431 483L381 565L296 483H181L376 674H434L550 483H431ZM406 -1L414 34Q340 -11 248 -11Q160 -11 109 26Q54 65 54 137Q54 159 60 184L128 507H224L156 185Q153 169 153 156Q153 76 266
76Q423 76 456 234L514 507H610L502 -1H406Z" />
<glyph unicode="&#xfc;" glyph-name="udieresis" horiz-adv-x="525" d="M423 485Q384 485 384 521Q384 526 385 531L396 580Q405 624 453 624Q493 624 493 590Q493 585 492 580L481 531Q472 485 423 485ZM308 485Q268 485 268 521Q268 526 269 531L280 580Q289
624 338 624Q377 624 377 590Q377 585 376 580L365 531Q356 485 308 485ZM406 -1L414 33Q340 -11 248 -11Q160 -11 109 25Q54 64 54 136Q54 158 59 182L127 503H223L155 183Q152 168 152 155Q152 76 266 76Q423 76 456 232L513 503H609L502 -1H406Z" />
<glyph unicode="&#xfd;" glyph-name="yacute" horiz-adv-x="506" d="M476 601L333 484Q313 472 296 472Q283 472 270 482Q254 493 254 509Q254 528 278 547L415 659Q433 674 453 674Q469 674 483 665Q497 649 493 630Q491 617 476 601ZM203 -179Q108 -179 53 -143T-2
-27Q-2 -1 4 33H99Q96 17 96 3Q96 -50 128 -71Q157 -90 224 -90Q378 -90 410 20Q337 -25 245 -25Q158 -25 107 12Q52 51 52 125Q52 148 57 174L127 503H223L154 175Q150 159 150 145Q150 64 264 64Q420 64 454 225L513 503H609L510 36Q464 -179 203 -179Z" />
<glyph unicode="&#xfe;" glyph-name="thorn" horiz-adv-x="564" d="M508 55Q418 -24 288 -24Q182 -24 124 33L81 -168H-15L165 678H261L214 457Q297 515 401 515Q511 515 569 459Q624 407 624 316Q624 283 616 247Q591 128 508 55ZM505 375Q471 426 389 426Q305
426 246 377T169 249Q163 217 163 191Q163 64 311 64Q394 64 451 116Q503 165 521 246Q527 273 527 297Q527 343 505 375Z" />
<glyph unicode="&#xff;" glyph-name="ydieresis" horiz-adv-x="510" d="M416 483Q377 483 377 519Q377 524 378 529L389 579Q398 624 446 624Q489 624 485 581L474 529Q464 483 416 483ZM301 483Q261 483 261 519Q261 524 262 529L273 579Q282 624 331 624Q373
624 369 581L358 529Q348 483 301 483ZM203 -179Q108 -179 53 -143T-2 -28Q-2 -1 3 32H98Q96 16 96 2Q96 -50 128 -71Q157 -91 224 -91Q377 -91 410 19Q337 -26 245 -26Q157 -26 107 11Q52 50 52 124Q52 147 57 172L127 500H223L153 173Q150 157 150 143Q150 62
263 62Q420 62 454 223L513 500H609L510 35Q464 -179 203 -179Z" />
</font>
</defs>
</svg>
